<?xml version="1.0" encoding="iso-8859-1"?>
<!-- Generator: Adobe Illustrator 19.0.0, SVG Export Plug-In . SVG Version: 6.00 Build 0)  -->
<svg version="1.1" id="Layer_1" xmlns="http://www.w3.org/2000/svg" xmlns:xlink="http://www.w3.org/1999/xlink" x="0px" y="0px"
	 viewBox="0 0 512 512" style="enable-background:new 0 0 512 512;" xml:space="preserve">
<polygon style="fill:#FF8E00;" points="512,174.176 489.834,152.01 408.01,233.835 397.553,256.001 408.01,278.166 489.834,359.99 
	512,337.824 430.176,256.001 "/>
<polygon style="fill:#FFBA00;" points="326.187,152.01 304.021,174.176 385.846,256.001 304.021,337.824 326.187,359.99 
	408.01,278.166 408.01,233.835 "/>
<polygon style="fill:#B4B4B4;" points="266.071,45.698 186.5,105.972 157.607,256.001 186.5,406.028 266.071,466.302 "/>
<polygon style="fill:#E0E0E0;" points="106.928,166.247 78.036,256.001 106.928,345.754 186.5,406.028 186.5,105.972 "/>
<polygon style="fill:#707070;" points="53.464,166.247 24.571,256.001 53.464,345.754 106.928,345.754 106.928,166.247 "/>
<rect y="166.247" style="fill:#B4B4B4;" width="53.469" height="179.507"/>
<g>
</g>
<g>
</g>
<g>
</g>
<g>
</g>
<g>
</g>
<g>
</g>
<g>
</g>
<g>
</g>
<g>
</g>
<g>
</g>
<g>
</g>
<g>
</g>
<g>
</g>
<g>
</g>
<g>
</g>
</svg>
