<?xml version="1.0" encoding="iso-8859-1"?>
<!-- Generator: Adobe Illustrator 19.0.0, SVG Export Plug-In . SVG Version: 6.00 Build 0)  -->
<svg version="1.1" id="Layer_1" xmlns="http://www.w3.org/2000/svg" xmlns:xlink="http://www.w3.org/1999/xlink" x="0px" y="0px"
	 viewBox="0 0 512.001 512.001" style="enable-background:new 0 0 512.001 512.001;" xml:space="preserve">
<g>
	<path style="fill:#FFBA00;" d="M364.355,477.062l-12.007-28.957c37.516-15.558,69.471-41.595,92.411-75.297
		c23.484-34.502,35.896-74.894,35.896-116.808s-12.413-82.305-35.896-116.808c-22.939-33.703-54.894-59.74-92.411-75.297
		l12.007-28.957c43.17,17.902,79.935,47.852,106.318,86.616c27.037,39.725,41.329,86.215,41.329,134.447
		c0,48.23-14.291,94.721-41.329,134.446C444.289,429.209,407.525,459.159,364.355,477.062z"/>
	<path style="fill:#FFBA00;" d="M339.992,418.245l-12.007-28.957c54.079-22.425,89.023-74.744,89.023-133.289
		s-34.943-110.864-89.023-133.289l12.007-28.957C405.821,121.051,448.356,184.736,448.356,256
		C448.355,327.262,405.82,390.948,339.992,418.245z"/>
	<path style="fill:#FFBA00;" d="M315.629,359.43l-12.007-28.957c30.216-12.53,49.74-41.762,49.74-74.473
		s-19.524-61.943-49.74-74.473l12.007-28.957c41.965,17.402,69.08,58,69.08,103.429S357.594,342.028,315.629,359.43z"/>
</g>
<polygon style="fill:#B4B4B4;" points="266.071,45.698 186.5,105.972 157.607,256.001 186.5,406.028 266.071,466.302 "/>
<polygon style="fill:#E0E0E0;" points="106.928,166.247 78.036,256.001 106.928,345.754 186.5,406.028 186.5,105.972 "/>
<polygon style="fill:#707070;" points="53.464,166.247 24.571,256.001 53.464,345.754 106.928,345.754 106.928,166.247 "/>
<rect y="166.247" style="fill:#B4B4B4;" width="53.469" height="179.507"/>
<g>
</g>
<g>
</g>
<g>
</g>
<g>
</g>
<g>
</g>
<g>
</g>
<g>
</g>
<g>
</g>
<g>
</g>
<g>
</g>
<g>
</g>
<g>
</g>
<g>
</g>
<g>
</g>
<g>
</g>
</svg>
